HIERARCHY
ROOT Hips
{
	OFFSET 0.000000 0.000000 0.000000
	CHANNELS 6 Xposition Yposition Zposition Zrotation Yrotation Xrotation 
	JOINT LowerBack
	{
		OFFSET 0.000000 0.000000 0.000000
		CHANNELS 3 Zrotation Yrotation Xrotation
		JOINT Spine
		{
			OFFSET 0.028270 2.035590 -0.193380
			CHANNELS 3 Zrotation Yrotation Xrotation
			JOINT Spine1
			{
				OFFSET 0.056720 2.048850 -0.042750
				CHANNELS 3 Zrotation Yrotation Xrotation
				JOINT Neck
				{
					OFFSET 0.000000 0.000000 0.000000
					CHANNELS 3 Zrotation Yrotation Xrotation
					JOINT Neck1
					{
						OFFSET -0.054170 1.746240 0.172020
						CHANNELS 3 Zrotation Yrotation Xrotation
						JOINT Head
						{
							OFFSET 0.104070 1.761360 -0.123970
							CHANNELS 3 Zrotation Yrotation Xrotation
							End Site
							{
								OFFSET 0.000000 0.000000 0.000000
							}
						}
					}
				}
				JOINT LeftShoulder
				{
					OFFSET 0.000000 0.000000 0.000000
					CHANNELS 3 Zrotation Yrotation Xrotation
					JOINT LeftArm
					{
						OFFSET 3.362410 1.200890 -0.311210
						CHANNELS 3 Zrotation Yrotation Xrotation
						JOINT LeftForeArm
						{
							OFFSET 4.983000 -0.000000 -0.000000
							CHANNELS 3 Zrotation Yrotation Xrotation
							JOINT LeftHand
							{
								OFFSET 3.483560 -0.000000 -0.000000
								CHANNELS 3 Zrotation Yrotation Xrotation
								JOINT LeftFingerBase
								{
									OFFSET 0.000000 0.000000 0.000000
									CHANNELS 3 Zrotation Yrotation Xrotation
									JOINT LeftHandIndex1
									{
										OFFSET 0.715260 -0.000000 -0.000000
										CHANNELS 3 Zrotation Yrotation Xrotation
										End Site
										{
											OFFSET 0.000000 0.000000 0.000000
										}
									}
								}
								JOINT LThumb
								{
									OFFSET 0.000000 0.000000 0.000000
									CHANNELS 3 Zrotation Yrotation Xrotation
									End Site
									{
										OFFSET 0.000000 0.000000 0.000000
									}
								}
							}
						}
					}
				}
				JOINT RightShoulder
				{
					OFFSET 0.000000 0.000000 0.000000
					CHANNELS 3 Zrotation Yrotation Xrotation
					JOINT RightArm
					{
						OFFSET -3.136600 1.374050 -0.404650
						CHANNELS 3 Zrotation Yrotation Xrotation
						JOINT RightForeArm
						{
							OFFSET -5.241900 -0.000000 -0.000000
							CHANNELS 3 Zrotation Yrotation Xrotation
							JOINT RightHand
							{
								OFFSET -3.444170 -0.000000 -0.000000
								CHANNELS 3 Zrotation Yrotation Xrotation
								JOINT RightFingerBase
								{
									OFFSET 0.000000 0.000000 0.000000
									CHANNELS 3 Zrotation Yrotation Xrotation
									JOINT RightHandIndex1
									{
										OFFSET -0.622530 -0.000000 -0.000000
										CHANNELS 3 Zrotation Yrotation Xrotation
										End Site
										{
											OFFSET 0.000000 0.000000 0.000000
										}
									}
								}
								JOINT RThumb
								{
									OFFSET 0.000000 0.000000 0.000000
									CHANNELS 3 Zrotation Yrotation Xrotation
									End Site
									{
										OFFSET 0.000000 0.000000 0.000000
									}
								}
							}
						}
					}
				}
			}
		}
	}
}
}
MOTION
Frames: 17
Frame Time: 0.008333
4.759006 17.293817 0.967139 -177.034969 -68.103102 -173.916878 4.155295 2.928923 -8.815886 0.028465 2.355167 -5.372186 -4.724174 2.386424 -4.414560 5.051903 1.169019 5.179747 -1.758195 -0.315538 3.549544 0.000000 0.000000 0.000000 11.046099 16.001329 -6.755616 -10.631714 -60.140722 -60.000749 175.493480 -59.212736 179.561924 29.447056 -10.923820 -3.232758 -0.529249 1.124899 0.000000 0.000000 0.000000 0.000000 0.000000 0.000000 0.000000 -2.390202 -0.549957 -8.324497 51.180828 63.788751 -24.186393 -174.716509 58.368786 179.675184 -18.826832 17.778572 -3.185688 0.076510 -1.133931 0.000000 0.000000 0.000000 0.000000 0.000000 0.000000 0.000000 
4.746841 17.293880 0.973435 -177.147994 -66.726453 -173.399605 4.341485 3.035000 -9.003903 0.066824 2.440584 -5.421126 -4.704179 2.468040 -4.448683 5.081685 1.246206 5.108880 -1.747488 -0.314235 3.533031 0.000000 0.000000 0.000000 11.286373 16.283985 -6.783540 -8.495656 -59.675938 -62.375066 175.584916 -59.771194 179.565433 29.380094 -10.532730 -3.115507 -0.527534 1.110467 0.000000 0.000000 0.000000 0.000000 0.000000 0.000000 0.000000 -2.304384 -0.306570 -8.326409 51.740422 64.188748 -23.682570 -174.722532 58.586421 179.674183 -18.796225 17.873077 -3.196488 0.072767 -1.136247 0.000000 0.000000 0.000000 0.000000 0.000000 0.000000 0.000000 
4.737169 17.293794 0.979934 -177.251648 -65.347409 -172.884583 4.512077 3.104244 -9.173031 0.103748 2.489355 -5.469129 -4.690081 2.513371 -4.493099 5.127430 1.330837 5.037202 -1.735364 -0.312913 3.516758 0.000000 0.000000 0.000000 11.535826 16.455513 -6.781347 -6.151950 -59.032929 -64.828955 175.704097 -60.422169 179.569494 29.266303 -10.158192 -2.998473 -0.525013 1.096558 0.000000 0.000000 0.000000 0.000000 0.000000 0.000000 0.000000 -2.199014 -0.041216 -8.314263 52.360581 64.601601 -23.135835 -174.736006 58.824910 179.673189 -18.772131 17.957073 -3.206580 0.069342 -1.138387 0.000000 0.000000 0.000000 0.000000 0.000000 0.000000 0.000000 
4.730428 17.293610 0.986891 -177.346501 -63.979199 -172.382320 4.662880 3.134522 -9.312947 0.138679 2.499859 -5.514615 -4.682162 2.520679 -4.549007 5.194333 1.422859 4.964788 -1.719558 -0.311463 3.500732 0.000000 0.000000 0.000000 11.801408 16.502540 -6.743700 -3.656659 -58.198168 -67.320489 175.848264 -61.143160 179.573429 29.158730 -9.889379 -2.912060 -0.523081 1.085281 0.000000 0.000000 0.000000 0.000000 0.000000 0.000000 0.000000 -2.079303 0.243970 -8.287023 53.026070 65.011063 -22.562702 -174.755499 59.073941 179.672196 -18.760520 18.022535 -3.215664 0.066487 -1.140188 0.000000 0.000000 0.000000 0.000000 0.000000 0.000000 0.000000 
4.726660 17.293395 0.994189 -177.434531 -62.634783 -171.889980 4.785159 3.124458 -9.427023 0.170190 2.471397 -5.557972 -4.679870 2.488888 -4.615249 5.291278 1.520351 4.891185 -1.697941 -0.309758 3.484833 0.000000 0.000000 0.000000 12.093998 16.423145 -6.670116 -1.087369 -57.185514 -69.809167 176.011762 -61.923515 179.576509 29.115019 -9.809338 -2.884364 -0.522874 1.078425 0.000000 0.000000 0.000000 0.000000 0.000000 0.000000 0.000000 -1.946535 0.543526 -8.244593 53.720838 65.400775 -21.978391 -174.779391 59.326246 179.671196 -18.765867 18.062525 -3.223345 0.064347 -1.141498 0.000000 0.000000 0.000000 0.000000 0.000000 0.000000 0.000000 
4.726035 17.293177 1.001922 -177.515427 -61.327990 -171.413858 4.872944 3.072459 -9.512469 0.197878 2.403109 -5.598055 -4.680865 2.416897 -4.690418 5.425622 1.621368 4.816017 -1.668571 -0.307674 3.468874 0.000000 0.000000 0.000000 12.424312 16.228576 -6.564161 1.465574 -56.036548 -72.266695 176.187849 -62.764384 179.578090 29.191852 -9.994060 -2.941489 -0.525139 1.077393 0.000000 0.000000 0.000000 0.000000 0.000000 0.000000 0.000000 -1.802134 0.850380 -8.188976 54.424803 65.759389 -21.399280 -174.804993 59.572381 179.670172 -18.789953 18.073316 -3.229325 0.062951 -1.142243 0.000000 0.000000 0.000000 0.000000 0.000000 0.000000 0.000000 
4.728900 17.293029 1.010574 -177.580887 -60.072080 -170.978491 4.928613 2.976961 -9.553155 0.223532 2.293901 -5.630957 -4.680942 2.303738 -4.773759 5.599843 1.724247 4.738656 -1.630034 -0.305089 3.452488 0.000000 0.000000 0.000000 12.795723 15.941656 -6.432782 3.920034 -54.818400 -74.688068 176.370785 -63.690315 179.577780 29.437384 -10.500627 -3.105738 -0.529932 1.082859 0.000000 0.000000 0.000000 0.000000 0.000000 0.000000 0.000000 -1.648695 1.158170 -8.124163 55.115082 66.084250 -20.841514 -174.829717 59.811801 179.669115 -18.830360 18.055426 -3.233111 0.062114 -1.142394 0.000000 0.000000 0.000000 0.000000 0.000000 0.000000 0.000000 
4.734593 17.293031 1.019392 -177.640512 -58.883446 -170.553333 4.937183 2.836849 -9.579735 0.244809 2.143277 -5.660504 -4.677030 2.148234 -4.858687 5.823552 1.824661 4.659923 -1.582390 -0.301975 3.435883 0.000000 0.000000 0.000000 13.232029 15.581108 -6.286389 6.174630 -53.606763 -77.055343 176.554037 -64.739776 179.575505 29.882793 -11.342697 -3.389114 -0.536564 1.094319 0.000000 0.000000 0.000000 0.000000 0.000000 0.000000 0.000000 -1.479464 1.455685 -8.052759 55.782320 66.367861 -20.308615 -174.852067 60.036890 179.668040 -18.881861 18.011553 -3.234400 0.061656 -1.142045 0.000000 0.000000 0.000000 0.000000 0.000000 0.000000 0.000000 
4.743643 17.293223 1.029348 -177.678116 -57.776115 -170.184005 4.914620 2.650324 -9.559490 0.266474 1.949167 -5.679269 -4.664470 1.949054 -4.944312 6.088860 1.921585 4.579390 -1.526511 -0.298315 3.418609 0.000000 0.000000 0.000000 13.712882 15.177259 -6.133718 8.205003 -52.488894 -79.405820 176.737720 -65.984338 179.571568 30.540019 -12.489148 -3.793827 -0.543760 1.109943 0.000000 0.000000 0.000000 0.000000 0.000000 0.000000 0.000000 -1.296841 1.738282 -7.980699 56.406355 66.623570 -19.808706 -174.870536 60.253696 179.666969 -18.935150 17.950855 -3.232903 0.061166 -1.141310 0.000000 0.000000 0.000000 0.000000 0.000000 0.000000 0.000000 
4.755506 17.293677 1.040319 -177.692624 -56.767255 -169.865139 4.861473 2.416380 -9.502625 0.289182 1.710322 -5.687322 -4.641416 1.704954 -5.024989 6.393746 2.011921 4.498463 -1.464955 -0.294214 3.400938 0.000000 0.000000 0.000000 14.237706 14.741254 -5.981098 9.971290 -51.527182 -81.744449 176.923872 -67.504816 179.566498 31.389765 -13.847305 -4.302782 -0.549874 1.126803 0.000000 0.000000 0.000000 0.000000 0.000000 0.000000 0.000000 -1.094609 1.998174 -7.911369 56.980306 66.857699 -19.339863 -174.885543 60.462505 179.665955 -18.979917 17.883031 -3.228721 0.060327 -1.140376 0.000000 0.000000 0.000000 0.000000 0.000000 0.000000 0.000000 
4.770135 17.294476 1.052611 -177.681059 -55.873584 -169.609879 4.787008 2.134841 -9.403694 0.314963 1.426086 -5.682316 -4.607566 1.415668 -5.096971 6.730632 2.092911 4.418370 -1.401618 -0.289854 3.383040 0.000000 0.000000 0.000000 14.791206 14.273994 -5.830362 11.466955 -50.758671 -84.072642 177.119819 -69.396113 179.560845 32.382518 -15.279649 -4.879584 -0.553409 1.141637 0.000000 0.000000 0.000000 0.000000 0.000000 0.000000 0.000000 -0.865785 2.230037 -7.847748 57.491346 67.081506 -18.903856 -174.898774 60.671182 179.665069 -19.009064 17.816695 -3.221854 0.058929 -1.139317 0.000000 0.000000 0.000000 0.000000 0.000000 0.000000 0.000000 
4.787237 17.295622 1.066007 -177.648455 -55.113006 -169.410742 4.692592 1.805565 -9.272197 0.343595 1.096112 -5.665323 -4.564886 1.080883 -5.157247 7.093777 2.164152 4.342609 -1.340760 -0.285497 3.365853 0.000000 0.000000 0.000000 15.378653 13.749688 -5.676962 12.653517 -50.167436 -86.346647 177.335721 -71.739231 179.554924 33.454331 -16.633680 -5.473530 -0.553913 1.151980 -0.000000 0.000000 0.000000 0.000000 0.000000 0.000000 0.000000 -0.601726 2.429896 -7.790948 57.936023 67.299157 -18.500863 -174.913213 60.881790 179.664422 -19.010511 17.764207 -3.212500 0.056737 -1.138361 0.000000 0.000000 0.000000 0.000000 0.000000 0.000000 0.000000 
4.806745 17.297169 1.080740 -177.595299 -54.501539 -169.276192 4.585380 1.429452 -9.104430 0.375545 0.721188 -5.635489 -4.517009 0.701665 -5.204524 7.475213 2.224072 4.273239 -1.287022 -0.281417 3.349900 0.000000 0.000000 0.000000 15.989328 13.140465 -5.514445 13.530909 -49.714220 -88.520557 177.585313 -74.617041 179.548695 34.537650 -17.768885 -6.027210 -0.552003 1.156738 -0.000000 0.000000 0.000000 0.000000 0.000000 0.000000 0.000000 -0.293374 2.593857 -7.741499 58.304048 67.516344 -18.136533 -174.932074 61.101526 179.664106 -18.979691 17.732244 -3.201155 0.053710 -1.137529 0.000000 0.000000 0.000000 0.000000 0.000000 0.000000 0.000000 
4.828346 17.299199 1.096975 -177.519546 -54.051934 -169.213244 4.473014 1.009180 -8.900027 0.410809 0.303918 -5.592827 -4.469175 0.280818 -5.237540 7.868456 2.268893 4.211063 -1.244696 -0.277869 3.335419 0.000000 0.000000 0.000000 16.606386 12.414729 -5.333970 14.125300 -49.330702 -90.536784 177.885586 -78.107414 179.542166 35.559909 -18.605365 -6.493609 -0.548985 1.156808 -0.000000 0.000000 0.000000 0.000000 0.000000 0.000000 0.000000 0.068081 2.716139 -7.699123 58.584607 67.735161 -17.818775 -174.957632 61.335280 179.664135 -18.923336 17.719102 -3.188615 0.050122 -1.136645 0.000000 0.000000 0.000000 0.000000 0.000000 0.000000 0.000000 
4.851714 17.301717 1.114583 -177.425221 -53.774584 -169.216797 4.356331 0.546930 -8.663909 0.448280 -0.153050 -5.538554 -4.425530 -0.178999 -5.255469 8.268732 2.296168 4.155743 -1.216288 -0.275013 3.322415 0.000000 0.000000 0.000000 17.227180 11.541552 -5.124551 14.447815 -48.924011 -92.326742 178.251624 -82.265336 179.535164 36.484452 -19.099018 -6.839808 -0.547384 1.153847 -0.000000 0.000000 0.000000 0.000000 0.000000 0.000000 0.000000 0.485916 2.791910 -7.663871 58.781460 67.951852 -17.548933 -174.991406 61.585455 179.664525 -18.843713 17.725026 -3.175277 0.046111 -1.135672 0.000000 0.000000 0.000000 0.000000 0.000000 0.000000 0.000000 
4.876801 17.304762 1.133477 -177.318501 -53.674200 -169.284579 4.236862 0.045633 -8.398277 0.487397 -0.646155 -5.473030 -4.388332 -0.674130 -5.256258 8.671073 2.301338 4.103153 -1.202652 -0.272863 3.309840 0.000000 0.000000 0.000000 17.841479 10.508140 -4.874241 14.547287 -48.404535 -93.840852 178.696733 -87.138687 179.527738 37.285237 -19.261824 -7.054687 -0.549788 1.150167 -0.000000 0.000000 0.000000 0.000000 0.000000 0.000000 0.000000 0.956863 2.815337 -7.637481 58.906591 68.163050 -17.323579 -175.032846 61.854543 179.665219 -18.749986 17.744073 -3.161738 0.041917 -1.134466 0.000000 0.000000 0.000000 0.000000 0.000000 0.000000 0.000000 
4.903318 17.308297 1.153492 -177.202339 -53.749322 -169.411658 4.115542 -0.491222 -8.106734 0.528231 -1.171320 -5.396002 -4.356841 -1.200371 -5.234450 9.070149 2.277968 4.044589 -1.202757 -0.271260 3.295357 0.000000 0.000000 0.000000 18.439213 9.324357 -4.568439 14.500178 -47.696979 -95.051057 -0.771178 -87.229016 -0.480086 37.964684 -19.104241 -7.134537 -0.559316 1.147468 -0.000000 0.000000 0.000000 0.000000 0.000000 0.000000 0.000000 1.469114 2.779785 -7.624139 58.983252 68.365695 -17.131104 -175.079480 62.143639 179.666099 -18.653431 17.767976 -3.148393 0.037770 -1.132908 0.000000 0.000000 0.000000 0.000000 0.000000 0.000000 0.000000 
